<svg version="1.1" xmlns="http://www.w3.org/2000/svg" xmlns:xlink="http://www.w3.org/1999/xlink" width="53.5" height="80.5" viewBox="0,0,53.5,80.5"><g transform="translate(-213.25,-139.75)"><g data-paper-data="{&quot;isPaintingLayer&quot;:true}" fill-rule="nonzero" stroke-linecap="butt" stroke-linejoin="miter" stroke-miterlimit="10" stroke-dasharray="" stroke-dashoffset="0" style="mix-blend-mode: normal"><path d="M218.5,219c-2.20914,0 -4,-1.79086 -4,-4v-70c0,-2.20914 1.79086,-4 4,-4h43c2.20914,0 4,1.79086 4,4v70c0,2.20914 -1.79086,4 -4,4z" fill="#ffffff" stroke="#afafaf" stroke-width="2.5"/><path d="M226.84445,205.59092c-1.57094,0 -2.84444,-0.71066 -2.84444,-1.5873v-21.8254c0,-0.87664 1.2735,-1.58731 2.84444,-1.58731h26.31111c1.57094,0 2.84444,0.71066 2.84444,1.58731v21.8254c0,0.87664 -1.2735,1.5873 -2.84444,1.5873z" fill="#ebebeb" stroke="none" stroke-width="0"/><path d="M226.84445,183.50001c-1.57094,0 -2.84444,-0.76751 -2.84444,-1.71429v-23.57143c0,-0.94678 1.2735,-1.71429 2.84444,-1.71429h26.31111c1.57094,0 2.84444,0.76751 2.84444,1.71429v23.57143c0,0.94678 -1.2735,1.71429 -2.84444,1.71429z" fill="#f2f2f2" stroke="none" stroke-width="0"/><path d="M224.01743,201.36545v-20.79149h31.96045v20.79149z" fill="#ebebeb" stroke="none" stroke-width="0"/></g></g></svg>